/* XPM */
static const char * seq24_xpm_playlist[] = {
"124 32 4 1",
" 	c None",
".	c None",
"+	c #000000",
"#	c #FF0000",
"............................................................................................................................",
"............................................................................................................................",
"............................................................................................................................",
"............................................................................................................................",
"....++++++++++++++++++++....++++++++++++++++++++....++++++++++++++++++++....++++++++++++++++++++....++++............++++....",
"....+###########+++##+++....++++++##########+++##...+++++##++##+++++++++...############+++###########++############.++++....",
"....+##++++++++##++##+++....+++++############++##...+++++##++##+++++++++...############++############++############.++++....",
"....+##++++++++##++##+++....+++++##++++++++##++##...+++++##++##+++++++++....++++##+++++++##+++++....++++....##......++++....",
"....+##+.......##..##.......++++.##........##..##########.#..##.....++++........##.......##.++++....++++....##......++++....",
"....+############..##.......++++.############...##########...##.....++++........##.......###########++++....##......++++....",
"....+###########...##.......++++.##........##.......+##+.....##.....++++........##........###########+++....##......++++....",
"....+##+...........##.......++++.##........##.......+##+.....##.....++++........##..........++++...##+++....##......++++....",
"....+##++++++++++++##+++....+++++##++++++++##+++....+##+.....##.....++++....++++##++++++++++++++...##+++++++##++++++++++....",
"....+##++++++++++++############++##++++++++##+++....+##+.....############..############++############+++++++##++++++++++....",
"....+##++++++++++++############++##++++++++##+++....+##+.....############..############++###########++++++++##++++++++++....",
"....++++++++++++++++++++....++++++++++++++++++++....++++............++++....++++++++++++++++++++....++++++++++++++++++++....",
"....................++++....++++....................++++....++++....++++....++++....................................++++....",
"....................++++....++++....................++++....++++....++++....++++....................................++++....",
"....................++++....++++....................++++....++++....++++....++++....................................++++....",
"....................++++....++++....................++++....++++....++++....++++....................................++++....",
"....++++++++++++++++++++....++++++++++++++++++++....++++++++++++++++++++....++++++++++++++++++++....................++++....",
"....++++++++++++++++++++....++++++++++++++++++++....++++++++++++++++++++....++++++++++++++++++++........++++........++++....",
"....++++++++++++++++++++....++++++++++++++++++++....++++++++++++++++++++....++++++++++++++++++++........++++........++++....",
"....++++++++++++++++++++....++++++++++++++++++++....++++++++++++++++++++....++++++++++++++++++++........++++........++++....",
"............................................................++++........................................++++................",
"............................................................++++....................................++++++++++++............",
"............................................................++++....................................++++++++++++............",
"............................................................++++....................................++++++++++++............",
"........................................................................................................++++................",
"........................................................................................................++++................",
"........................................................................................................++++................",
"........................................................................................................++++................"};
